<svg xmlns="http://www.w3.org/2000/svg" viewBox="0 0 354.16 129.23"><defs><style>.cls-1{fill:#1d1d1b;}.cls-2{fill:#eee;}.cls-3{opacity:0.7;}.cls-4{fill:#e52520;}</style></defs><g id="Layer_2" data-name="Layer 2"><g id="Layer_1-2" data-name="Layer 1"><rect class="cls-1" y="40.72" width="354.16" height="47.78" rx="5.12"/><circle class="cls-2" cx="32.82" cy="64.61" r="14.17" transform="translate(-35.38 89.14) rotate(-82.85)"/><circle class="cls-2" cx="166.63" cy="64.61" r="9.92" transform="translate(-11.75 53.58) rotate(-17.66)"/><circle class="cls-2" cx="332.95" cy="64.61" r="2.84" transform="translate(-2.49 114.72) rotate(-19.48)"/><circle class="cls-2" cx="305.36" cy="64.61" r="4.25" transform="translate(-4.81 99.5) rotate(-18.37)"/><circle class="cls-2" cx="274.93" cy="64.61" r="5.67" transform="translate(-0.17 0.73) rotate(-0.15)"/><circle class="cls-2" cx="241.66" cy="64.61" r="7.09" transform="translate(-8.09 78.82) rotate(-18.22)"/><circle class="cls-2" cx="205.56" cy="64.61" r="8.5" transform="translate(-9.91 66.4) rotate(-17.92)"/><circle class="cls-2" cx="124.86" cy="64.61" r="11.34" transform="matrix(0.96, -0.28, 0.28, 0.96, -12.96, 36.83)"/><circle class="cls-2" cx="80.26" cy="64.61" r="12.76" transform="translate(-0.94 1.18) rotate(-0.84)"/><g class="cls-3"><path class="cls-4" d="M130.91,0a12.11,12.11,0,0,1,8.2,3.73Q154,18.64,169,33.57l5,5a4.11,4.11,0,0,0,6.2,0Q197.46,21.31,214.73,4a12.8,12.8,0,0,1,9.39-4,12.35,12.35,0,0,1,8.78,3.55q2.67,2.57,5.23,5.22a12.76,12.76,0,0,1-.28,18l-34.6,34.61c-2.1,2.1-2.1,4.41,0,6.51l34.6,34.6a12.76,12.76,0,0,1,0,18.29c-1.52,1.52-3,3-4.55,4.55a12.75,12.75,0,0,1-18.44,0L180.39,90.83c-2.18-2.18-4.44-2.18-6.62,0l-34.44,34.45a12.76,12.76,0,0,1-18.45,0c-1.52-1.51-3-3-4.55-4.55a12.75,12.75,0,0,1,0-18.28q17.28-17.31,34.6-34.61c2.1-2.1,2.1-4.41,0-6.51L116.36,26.79a12.76,12.76,0,0,1,0-18.39c1.57-1.57,3.13-3.14,4.71-4.7A13.22,13.22,0,0,1,130.91,0Z"/></g></g></g></svg>