<svg xmlns="http://www.w3.org/2000/svg" viewBox="0 0 354.16 129.23"><defs><style>.cls-1{fill:#eee;}.cls-2{fill:#1d1d1b;}.cls-3{opacity:0.7;}.cls-4{fill:#e52520;}</style></defs><g id="Layer_2" data-name="Layer 2"><g id="Layer_1-2" data-name="Layer 1"><path class="cls-1" d="M354.16,45.84V83.39A5.13,5.13,0,0,1,349,88.5H5.12A5.13,5.13,0,0,1,0,83.39V45.84a5.13,5.13,0,0,1,5.12-5.12H349A5.14,5.14,0,0,1,354.16,45.84Z"/><path class="cls-2" d="M47,88.5H18.64A14.18,14.18,0,0,1,47,88.5Z"/><path class="cls-2" d="M176.55,88.5H156.7a9.93,9.93,0,0,1,19.85,0Z"/><path class="cls-2" d="M335.78,88.5a2.79,2.79,0,0,0-1.1-2.14,2.85,2.85,0,0,0-4,.52,2.74,2.74,0,0,0-.58,1.62Z"/><path class="cls-2" d="M309.6,88.5h-8.5a4.26,4.26,0,0,1,8.37-1A4,4,0,0,1,309.6,88.5Z"/><path class="cls-2" d="M280.59,88.5H269.26a5.66,5.66,0,0,1,7.9-5.1A5.65,5.65,0,0,1,280.59,88.5Z"/><path class="cls-2" d="M248.75,88.5H234.58a7.08,7.08,0,0,1,13.28-3.32A7.18,7.18,0,0,1,248.75,88.5Z"/><path class="cls-2" d="M214.07,88.5h-17a9.71,9.71,0,0,1,.1-1.19,8.51,8.51,0,0,1,16.91,1.19Z"/><path class="cls-2" d="M136.2,88.5H113.52a11.34,11.34,0,0,1,22.62-1C136.18,87.83,136.19,88.17,136.2,88.5Z"/><path class="cls-2" d="M93,88.5H67.5A12.76,12.76,0,0,1,93,88.5Z"/><g class="cls-3"><path class="cls-4" d="M130.91,0a12.11,12.11,0,0,1,8.2,3.73Q154,18.64,169,33.57l5,5a4.11,4.11,0,0,0,6.2,0Q197.46,21.31,214.73,4a12.8,12.8,0,0,1,9.39-4,12.39,12.39,0,0,1,8.79,3.55q2.66,2.57,5.22,5.22a12.76,12.76,0,0,1-.28,18l-34.6,34.61c-2.1,2.1-2.1,4.41,0,6.51l34.6,34.6a12.76,12.76,0,0,1,0,18.29c-1.52,1.52-3,3-4.55,4.55a12.75,12.75,0,0,1-18.44,0L180.39,90.83c-2.18-2.18-4.44-2.18-6.62,0l-34.44,34.45a12.75,12.75,0,0,1-18.44,0l-4.56-4.55a12.75,12.75,0,0,1,0-18.28l34.6-34.61c2.1-2.1,2.1-4.41,0-6.51L116.36,26.79a12.76,12.76,0,0,1,0-18.39c1.56-1.57,3.12-3.14,4.7-4.7A13.23,13.23,0,0,1,130.91,0Z"/></g></g></g></svg>